<svg xmlns="http://www.w3.org/2000/svg" viewBox="-1 -1 26 26"><defs><clipPath id="mlR"><rect x="12" y="-2" width="14" height="28"></rect></clipPath></defs><path d="M2 12a10 10 0 1 0 20 0a10 10 0 1 0 -20 0z" fill="#e8505a" fill-rule="evenodd"></path><g clip-path="url(#mlR)"><path d="M2 12a10 10 0 1 0 20 0a10 10 0 1 0 -20 0z" fill="#99353b" fill-rule="evenodd"></path></g><path d="M5.2 12a6.8 6.8 0 1 0 13.6 0a6.8 6.8 0 1 0 -13.6 0z" fill="#fff4f0" fill-rule="evenodd"></path><path d="M7.8 12a4.2 4.2 0 1 0 8.4 0a4.2 4.2 0 1 0 -8.4 0z" fill="#e8505a" fill-rule="evenodd"></path><g clip-path="url(#mlR)"><path d="M7.8 12a4.2 4.2 0 1 0 8.4 0a4.2 4.2 0 1 0 -8.4 0z" fill="#99353b" fill-rule="evenodd"></path></g><path d="M10.2 12a1.8 1.8 0 1 0 3.6 0a1.8 1.8 0 1 0 -3.6 0z" fill="#fff4f0" fill-rule="evenodd"></path></svg>