<svg xmlns="http://www.w3.org/2000/svg" viewBox="-1 -1 26 26"><defs><clipPath id="mlR"><rect x="12" y="-2" width="14" height="28"></rect></clipPath></defs><path d="M4.5 8h15l-1.2 12.3a1.5 1.5 0 0 1-1.5 1.2H7.2a1.5 1.5 0 0 1-1.5-1.2z" fill="#4fc68a" fill-rule="evenodd"></path><g clip-path="url(#mlR)"><path d="M4.5 8h15l-1.2 12.3a1.5 1.5 0 0 1-1.5 1.2H7.2a1.5 1.5 0 0 1-1.5-1.2z" fill="#34835b" fill-rule="evenodd"></path></g><path d="M8 11V6.5a4 4 0 0 1 8 0V11h-1.8V6.5a2.2 2.2 0 0 0-4.4 0V11z" fill="#d8ffe9" fill-rule="evenodd"></path></svg>